<?xml version="1.0" encoding="UTF-8"?><svg id="Layer_1" xmlns="http://www.w3.org/2000/svg" width="300" height="300" viewBox="0 0 300 300"><defs><style>.cls-1{fill:#231f20;opacity:.1;}</style></defs><path class="cls-1" d="M285.02,192.66l10.22,5.74h-20.45l10.22-5.74ZM297.71,13.31v-7.21l-6.42,10.82,6.42-3.61ZM295.93,200.88h-21.8l10.9,6.12,10.91-6.12ZM284.09,208.57l-11.5-6.46,5.75,9.68,5.75,9.68v-12.91h0ZM281.54,223.97l-11.5-6.46-.05.02v-.02l-11.5,6.46h23.04ZM287.32,14.69l6.42-10.82-6.42,3.61v7.21ZM282.47,227.35l-11.5,6.46v12.91l5.75-9.67,5.75-9.68h0ZM275.54,11.5l-3.2-5.41v7.21l6.42,3.61-3.22-5.41h0ZM282.73,7.46l-6.42-3.61,6.42,10.82v-7.21ZM276.72,212.71l-5.75-9.67v12.91l11.5,6.46-5.75-9.68h0ZM283.07,66.38v-8.64l-7.69-4.32,7.69,12.95h0ZM271.99,63.96l7.69,4.32-3.85-6.48-3.85-6.48v8.64h.01ZM281.54,177.79l-10.22,5.75v11.48l5.11-8.62,5.11-8.62h0ZM277.92,50.47l7.1,3.98,7.1-3.98h-14.21ZM275.39,150.74l9.64,5.41,9.64-5.41h-19.27ZM276.07,147.6h17.92l-8.96-5.03-8.95,5.03h0ZM276.65,100.61l8.36,4.69,8.36-4.69h-16.74.01ZM277.33,96.8h15.38l-7.69-4.32-7.69,4.32h0ZM291.44,0h-12.85l6.42,3.6L291.43,0h.01ZM298.38,251.69l-12.76,7.16v14.34l6.38-10.75,6.38-10.75h-.01ZM299.41,252.26l-6.38,10.75-6.38,10.75,12.76-7.16v-14.33h.01ZM297.19,251.02h-24.34l12.17,6.83,12.17-6.83ZM284.44,258.85l-12.76-7.16,6.38,10.75,6.38,10.75v-14.34h-.01ZM299.06,246.72v-12.91l-11.5-6.46,11.5,19.36h0ZM293.62,186.41l5.11,8.62v-11.48l-10.22-5.75,5.11,8.62h0ZM277.02,263.02l-6.37-10.75v14.33l12.76,7.16-6.37-10.75h-.01ZM298.73,153.8l-5.11,8.62-5.11,8.62,10.22-5.75v-11.48h0ZM299.06,203.03l-11.5,19.36,11.5-6.46v-12.91h0ZM294.2,85.14l3.85,6.48v-8.64l-7.69-4.32,3.85,6.48h-.01ZM283.07,89.2v-8.64l-7.69,12.95,7.69-4.32h0ZM280.27,173.17l-10.22-5.75-.05.02v-.02l-10.22,5.75h20.5ZM297.71,39.91v-7.21l-6.42-3.61,6.42,10.82ZM298.04,55.32l-3.85,6.48-3.85,6.48,7.69-4.32v-8.64h.01ZM282.8,274.76l-12.76-7.16-.05.02v-.02l-12.76,7.16h25.56ZM298.39,104.56l-8.96,15.1,8.96-5.03v-10.07ZM276.43,162.41l-5.11-8.62v11.48l10.22,5.75-5.11-8.62h0ZM276.14,112.1l-4.48-7.55v10.07l8.95,5.03-4.48-7.55h0ZM280.62,128.22l-8.95,5.03v10.07l4.48-7.55,4.48-7.55h0ZM300,232.24v-6.46h-11.5l11.5,6.46ZM300,274.76v-7.16l-12.76,7.16h12.76ZM283.75,179.03l-5.11,8.62-5.11,8.62,10.22-5.74v-11.48h0ZM272.34,39.91l3.2-5.41,3.22-5.41-6.42,3.61v7.21h0ZM283.42,129.79l-4.49,7.55-4.48,7.54,8.96-5.03v-10.06ZM283.75,158.29l-10.22-5.74,5.11,8.62,5.11,8.62v-11.48h0ZM278.6,46.01h12.85l-6.42-3.61-6.42,3.61h-.01ZM294.67,53.42l-7.69,4.32v8.64l3.84-6.48s3.85-6.48,3.85-6.48ZM298.39,143.32v-10.07l-8.96-5.03,8.96,15.1ZM282.73,38.53v-7.21l-6.42,10.82s6.42-3.61,6.42-3.61ZM300,283.09v-7.16h-12.76l12.76,7.16ZM285.62,277.5v14.34l12.76,7.16-6.38-10.75-6.38-10.75h.01ZM284.44,277.5l-6.38,10.75-6.38,10.75,12.76-7.16v-14.34h.01ZM272.27,300h25.51l-12.76-7.16-12.76,7.16h0ZM293.03,287.68l6.38,10.75v-14.33l-12.76-7.16,6.38,10.75h-.01ZM283.42,108.02l-8.96-5.03,4.48,7.54,4.49,7.55v-10.06ZM283.39,276.92l-12.76,7.16v14.33l6.37-10.75,6.37-10.75h.01ZM271.99,91.62l3.85-6.48,3.85-6.48-7.69,4.32v8.64h-.01ZM270,275.93h-12.76l12.76,7.16v-.02l.05.02,12.76-7.16h-12.8ZM287.32,38.53l6.42,3.61-6.42-10.82v7.21ZM300,130.54v-5.03h-8.95l8.95,5.03ZM300,122.36v-5.03l-8.95,5.03h8.95ZM300,173.17v-5.75l-10.22,5.75h10.22ZM284.09,228.26l-5.75,9.68-5.75,9.68,11.5-6.46v-12.91h0ZM300,181.39v-5.75h-10.22l10.22,5.75ZM300,79.69v-4.32h-7.69l7.69,4.32ZM300,28.84v-3.61h-6.42l6.42,3.61ZM293.58,20.77h6.42v-3.61l-6.42,3.61ZM300,71.57v-4.32l-7.69,4.32h7.69ZM285.96,208.57v12.91l11.48-19.37-11.48,6.46h0ZM296.52,152.56l-10.22,5.74v11.48l5.11-8.62,5.11-8.62h0ZM286.3,179.03v11.48l10.22,5.74-5.11-8.62-5.11-8.62h0ZM286.63,139.86l8.95,5.03-8.95-15.08v10.06ZM300,223.97v-6.46l-11.5,6.46h11.5ZM286.63,108.02v10.06l8.95-15.08-8.95,5.03ZM285.02,242.75l-11.5,6.46h22.98l-11.5-6.46h.01ZM286.98,80.56v8.64l7.69,4.32-3.85-6.48s-3.84-6.48-3.84-6.48ZM285.96,228.26v12.91l11.48,6.46-11.48-19.37h0ZM252.73,7.46l-6.42-3.61,6.42,10.82v-7.21ZM263.58,20.77h12.89l-6.42-3.61-.05.02v-.02l-6.42,3.61ZM256.98,89.2l7.69,4.32-3.85-6.48-3.84-6.48v8.64ZM247.33,96.8h15.38l-7.69-4.32-7.69,4.32h0ZM264.2,85.14l3.85,6.48v-8.64l-7.69-4.32,3.85,6.48h-.01ZM262.31,75.37l7.69,4.32v-.02l.05.02,7.69-4.32h-15.43ZM253.07,89.2v-8.64l-7.69,12.95,7.69-4.32h0ZM257.32,14.69l6.42-10.82-6.42,3.61v7.21ZM267.71,13.31v-7.21l-6.42,10.82,6.42-3.61ZM261.44,0h-12.85l6.42,3.6L261.43,0h.01ZM241.99,91.62l3.85-6.48,3.85-6.48-7.69,4.32v8.64h-.01ZM245.54,11.5l-3.2-5.41v7.21l6.42,3.61-3.22-5.41h0ZM268.38,251.69l-12.76,7.16v14.34l6.38-10.75,6.38-10.75h-.01ZM269.06,233.81l-11.5-6.46,11.5,19.36v-12.91h0ZM255.96,228.26v12.91l11.48,6.46-11.48-19.37h0ZM254.09,228.26l-5.75,9.68-5.75,9.68,11.5-6.46v-12.91h0ZM255.02,242.75l-11.5,6.46h22.98l-11.5-6.46h.01ZM253.07,66.38v-8.64l-7.69-4.32,7.69,12.95h0ZM252.47,227.35l-11.5,6.46v12.91l5.75-9.67,5.75-9.68h0ZM241.99,63.96l7.69,4.32-3.85-6.48-3.85-6.48v8.64h.01ZM242.34,39.91l3.2-5.41,3.22-5.41-6.42,3.61v7.21h0ZM252.73,38.53v-7.21l-6.42,10.82s6.42-3.61,6.42-3.61ZM257.32,38.53l6.42,3.61-6.42-10.82v7.21ZM270,232.21l.05.02,11.5-6.46h-23.03l11.5,6.46v-.02h-.01ZM267.71,39.91v-7.21l-6.42-3.61,6.42,10.82ZM263.58,25.24l6.42,3.61v-.02l.05.02,6.42-3.61h-12.89ZM254.44,258.85l-12.76-7.16,6.38,10.75,6.38,10.75v-14.34h-.01ZM248.6,46.01h12.85l-6.42-3.61-6.42,3.61h-.01ZM246.72,212.71l-5.75-9.67v12.91l11.5,6.46-5.75-9.68h0ZM251.54,223.97l-11.5-6.46-.05.02v-.02l-11.5,6.46h23.04ZM255.02,54.46l7.1-3.98h-14.21l7.1,3.98ZM269.41,252.26l-6.38,10.75-6.38,10.75,12.76-7.16v-14.33h.01ZM267.19,251.02h-24.34l12.17,6.83,12.17-6.83ZM252.8,274.76l-12.76-7.16-.05.02v-.02l-12.76,7.16h25.56ZM260.35,68.28l7.69-4.32v-8.64l-3.85,6.48-3.85,6.48h.01ZM256.98,66.38l3.84-6.48,3.85-6.48-7.69,4.32v8.64ZM269.06,203.03l-11.5,19.36,11.5-6.46v-12.91h0ZM265.93,200.88h-21.8l10.9,6.12,10.91-6.12ZM254.09,208.57l-11.5-6.46,5.75,9.68,5.75,9.68v-12.91h0ZM255.96,208.57v12.91l11.48-19.37-11.48,6.46h0ZM247.02,263.02l-6.37-10.75v14.33l12.76,7.16-6.37-10.75h-.01ZM241.66,143.32l4.48-7.55,4.48-7.55-8.95,5.03v10.07h0ZM262.31,71.57h15.42l-7.69-4.32-.05.02v-.02l-7.69,4.32h.01ZM246.07,147.6h17.92l-8.96-5.03-8.95,5.03h0ZM270,181.37l.05.02,10.22-5.75h-20.5l10.22,5.75v-.02ZM261.05,122.36h17.95l-8.95-5.03-.05.02v-.02l-8.95,5.03ZM268.39,143.32v-10.07l-8.96-5.03,8.96,15.1ZM241.66,114.62l8.95,5.03-4.48-7.55-4.48-7.55v10.07h0ZM256.63,139.86l8.95,5.03-8.95-15.08v10.06ZM270,130.51l.05.02,8.95-5.03h-17.95l8.95,5.03v-.02ZM244.45,144.89l8.96-5.03v-10.06l-4.49,7.55-4.48,7.54ZM253.75,158.29l-10.22-5.74,5.11,8.62,5.11,8.62v-11.48h0ZM264.66,150.74h-19.27l9.64,5.41,9.64-5.41ZM266.52,152.56l-10.22,5.74v11.48l5.11-8.62,5.11-8.62h0ZM246.43,162.41l-5.11-8.62v11.48l10.22,5.75-5.11-8.62h0ZM268.73,153.8l-5.11,8.62-5.11,8.62,10.22-5.75v-11.48h0ZM255.02,105.3l8.36-4.69h-16.74l8.36,4.69h.01ZM248.93,110.53l4.49,7.55v-10.06l-8.96-5.03,4.48,7.54ZM256.63,118.08l8.95-15.08-8.95,5.03v10.06ZM268.39,114.62v-10.07l-8.96,15.1,8.96-5.03ZM251.54,177.79l-10.22,5.75v11.48l5.11-8.62,5.11-8.62h0ZM255.62,277.5v14.34l12.76,7.16-6.38-10.75-6.38-10.75h.01ZM242.27,300h25.51l-12.76-7.16-12.76,7.16h0ZM250.27,173.17l-10.22-5.75-.05.02v-.02l-10.22,5.75h20.5ZM254.44,277.5l-6.38,10.75-6.38,10.75,12.76-7.16v-14.34h.01ZM253.39,276.92l-12.76,7.16v14.33l6.37-10.75,6.37-10.75h.01ZM263.03,287.68l6.38,10.75v-14.33l-12.76-7.16,6.38,10.75h-.01ZM255.02,192.66l-10.22,5.74h20.45l-10.22-5.74ZM261.41,187.64l-5.11-8.62v11.48l10.22,5.74-5.11-8.62h0ZM253.75,179.03l-5.11,8.62-5.11,8.62,10.22-5.74v-11.48h0ZM268.73,183.54l-10.22-5.75,5.11,8.62,5.11,8.62v-11.48h0ZM240,275.93h-12.76l12.76,7.16v-.02l.05.02,12.76-7.16h-12.8ZM211.66,143.32l4.48-7.55,4.48-7.55-8.95,5.03v10.07h0ZM216.07,147.6h17.92l-8.96-5.03-8.95,5.03h0ZM224.09,228.26l-5.75,9.68-5.75,9.68,11.5-6.46v-12.91h0ZM220.27,173.17l-10.22-5.75-.05.02v-.02l-10.22,5.75h20.5ZM222.47,227.35l-11.5,6.46v12.91l5.75-9.67,5.75-9.68h0ZM225.02,54.46l7.1-3.98h-14.21l7.1,3.98ZM211.99,63.96l7.69,4.32-3.85-6.48-3.85-6.48v8.64h.01ZM226.63,139.86l8.95,5.03-8.95-15.08v10.06ZM223.07,66.38v-8.64l-7.69-4.32,7.69,12.95h0ZM214.45,144.89l8.96-5.03v-10.06l-4.49,7.55-4.48,7.54ZM226.98,66.38l3.84-6.48,3.85-6.48-7.69,4.32v8.64ZM236.52,152.56l-10.22,5.74v11.48l5.11-8.62,5.11-8.62h0ZM234.66,150.74h-19.27l9.64,5.41,9.64-5.41ZM223.75,158.29l-10.22-5.74,5.11,8.62,5.11,8.62v-11.48h0ZM225.96,208.57v12.91l11.48-19.37-11.48,6.46h0ZM239.06,203.03l-11.5,19.36,11.5-6.46v-12.91h0ZM216.43,162.41l-5.11-8.62v11.48l10.22,5.75-5.11-8.62h0ZM238.73,153.8l-5.11,8.62-5.11,8.62,10.22-5.75v-11.48h0ZM230.35,68.28l7.69-4.32v-8.64l-3.85,6.48-3.85,6.48h.01ZM223.39,276.92l-12.76,7.16v14.33l6.37-10.75,6.37-10.75h.01ZM212.34,39.91l3.2-5.41,3.22-5.41-6.42,3.61v7.21h0ZM224.44,277.5l-6.38,10.75-6.38,10.75,12.76-7.16v-14.34h.01ZM225.62,277.5v14.34l12.76,7.16-6.38-10.75-6.38-10.75h.01ZM222.73,38.53v-7.21l-6.42,10.82s6.42-3.61,6.42-3.61ZM212.27,300h25.51l-12.76-7.16-12.76,7.16h0ZM233.03,287.68l6.38,10.75v-14.33l-12.76-7.16,6.38,10.75h-.01ZM225.02,242.75l-11.5,6.46h22.98l-11.5-6.46h.01ZM233.58,25.24l6.42,3.61v-.02l.05.02,6.42-3.61h-12.89ZM237.71,39.91v-7.21l-6.42-3.61,6.42,10.82ZM227.32,38.53l6.42,3.61-6.42-10.82v7.21ZM218.6,46.01h12.85l-6.42-3.61-6.42,3.61h-.01ZM240,232.21l.05.02,11.5-6.46h-23.03l11.5,6.46v-.02h-.01ZM239.06,233.81l-11.5-6.46,11.5,19.36v-12.91h0ZM225.96,228.26v12.91l11.48,6.46-11.48-19.37h0ZM238.39,143.32v-10.07l-8.96-5.03,8.96,15.1ZM235.93,200.88h-21.8l10.9,6.12,10.91-6.12ZM232.31,71.57h15.42l-7.69-4.32-.05.02v-.02l-7.69,4.32h.01ZM231.05,125.51l8.95,5.03v-.02l.05.02,8.95-5.03h-17.95ZM210,275.93h-12.76l12.76,7.16v-.02l.05.02,12.76-7.16h-12.8ZM231.05,122.36h17.95l-8.95-5.03-.05.02v-.02l-8.95,5.03ZM211.99,91.62l3.85-6.48,3.85-6.48-7.69,4.32v8.64h-.01ZM226.98,89.2l7.69,4.32-3.85-6.48-3.84-6.48v8.64ZM225.02,105.3l8.36-4.69h-16.74l8.36,4.69h.01ZM218.93,110.53l4.49,7.55v-10.06l-8.96-5.03,4.48,7.54ZM211.66,114.62l8.95,5.03-4.48-7.55-4.48-7.55v10.07h0ZM221.54,177.79l-10.22,5.75v11.48l5.11-8.62,5.11-8.62h0ZM217.33,96.8h15.38l-7.69-4.32-7.69,4.32h0ZM223.07,89.2v-8.64l-7.69,12.95,7.69-4.32h0ZM238.38,251.69l-12.76,7.16v14.34l6.38-10.75,6.38-10.75h-.01ZM217.02,263.02l-6.37-10.75v14.33l12.76,7.16-6.37-10.75h-.01ZM222.8,274.76l-12.76-7.16-.05.02v-.02l-12.76,7.16h25.56ZM224.44,258.85l-12.76-7.16,6.38,10.75,6.38,10.75v-14.34h-.01ZM238.39,114.62v-10.07l-8.96,15.1,8.96-5.03ZM226.63,118.08l8.95-15.08-8.95,5.03v10.06ZM223.75,179.03l-5.11,8.62-5.11,8.62,10.22-5.74v-11.48h0ZM237.19,251.02h-24.34l12.17,6.83,12.17-6.83ZM239.41,252.26l-6.38,10.75-6.38,10.75,12.76-7.16v-14.33h.01ZM225.02,192.66l-10.22,5.74h20.45l-10.22-5.74ZM227.32,14.69l6.42-10.82-6.42,3.61v7.21ZM222.73,7.46l-6.42-3.61,6.42,10.82v-7.21ZM233.58,20.77h12.89l-6.42-3.61-.05.02v-.02l-6.42,3.61ZM215.54,11.5l-3.2-5.41v7.21l6.42,3.61-3.22-5.41h0ZM237.71,13.31v-7.21l-6.42,10.82,6.42-3.61ZM232.31,75.37l7.69,4.32v-.02l.05.02,7.69-4.32h-15.43ZM221.54,223.97l-11.5-6.46-.05.02v-.02l-11.5,6.46h23.04ZM216.72,212.71l-5.75-9.67v12.91l11.5,6.46-5.75-9.68h0ZM224.09,208.57l-11.5-6.46,5.75,9.68,5.75,9.68v-12.91h0ZM234.2,85.14l3.85,6.48v-8.64l-7.69-4.32,3.85,6.48h-.01ZM240,181.37l.05.02,10.22-5.75h-20.5l10.22,5.75v-.02ZM231.44,0h-12.85l6.42,3.6L231.43,0h.01ZM231.41,187.64l-5.11-8.62v11.48l10.22,5.74-5.11-8.62h0ZM238.73,183.54l-10.22-5.75,5.11,8.62,5.11,8.62v-11.48h0ZM195.02,192.66l-10.22,5.74h20.45l-10.22-5.74ZM210,181.37l.05.02,10.22-5.75h-20.5l10.22,5.75v-.02ZM201.41,187.64l-5.11-8.62v11.48l10.22,5.74-5.11-8.62h0ZM202.31,71.57h15.42l-7.69-4.32-.05.02v-.02l-7.69,4.32h.01ZM208.73,183.54l-10.22-5.75,5.11,8.62,5.11,8.62v-11.48h0ZM193.75,179.03l-5.11,8.62-5.11,8.62,10.22-5.74v-11.48h0ZM196.63,118.08l8.95-15.08-8.95,5.03v10.06ZM195.02,105.3l8.36-4.69h-16.74l8.36,4.69h.01ZM188.93,110.53l4.49,7.55v-10.06l-8.96-5.03,4.48,7.54ZM208.39,114.62v-10.07l-8.96,15.1,8.96-5.03ZM191.54,177.79l-10.22,5.75v11.48l5.11-8.62,5.11-8.62h0ZM181.66,114.62l8.95,5.03-4.48-7.55-4.48-7.55v10.07h0ZM201.05,122.36h17.95l-8.95-5.03-.05.02v-.02l-8.95,5.03ZM205.93,200.88h-21.8l10.9,6.12,10.91-6.12ZM193.75,158.29l-10.22-5.74,5.11,8.62,5.11,8.62v-11.48h0ZM190.27,173.17l-10.22-5.75-.05.02v-.02l-10.22,5.75h20.5ZM184.45,144.89l8.96-5.03v-10.06l-4.49,7.55-4.48,7.54ZM186.43,162.41l-5.11-8.62v11.48l10.22,5.75-5.11-8.62h0ZM181.66,143.32l4.48-7.55,4.48-7.55-8.95,5.03v10.07h0ZM208.39,143.32v-10.07l-8.96-5.03,8.96,15.1ZM196.63,139.86l8.95,5.03-8.95-15.08v10.06ZM201.05,125.51l8.95,5.03v-.02l.05.02,8.95-5.03h-17.95ZM186.07,147.6h17.92l-8.96-5.03-8.95,5.03h0ZM186.72,212.71l-5.75-9.67v12.91l11.5,6.46-5.75-9.68h0ZM195.96,208.57v12.91l11.48-19.37-11.48,6.46h0ZM194.09,208.57l-11.5-6.46,5.75,9.68,5.75,9.68v-12.91h0ZM209.06,203.03l-11.5,19.36,11.5-6.46v-12.91h0ZM191.54,223.97l-11.5-6.46-.05.02v-.02l-11.5,6.46h23.04ZM204.66,150.74h-19.27l9.64,5.41,9.64-5.41ZM206.52,152.56l-10.22,5.74v11.48l5.11-8.62,5.11-8.62h0ZM208.73,153.8l-5.11,8.62-5.11,8.62,10.22-5.75v-11.48h0ZM209.06,233.81l-11.5-6.46,11.5,19.36v-12.91h0ZM195.02,54.46l7.1-3.98h-14.21l7.1,3.98ZM181.99,63.96l7.69,4.32-3.85-6.48-3.85-6.48v8.64h.01ZM193.07,66.38v-8.64l-7.69-4.32,7.69,12.95h0ZM194.09,228.26l-5.75,9.68-5.75,9.68,11.5-6.46v-12.91h0ZM192.47,227.35l-11.5,6.46v12.91l5.75-9.67,5.75-9.68h0ZM210,232.21l.05.02,11.5-6.46h-23.03l11.5,6.46v-.02h-.01ZM195.96,228.26v12.91l11.48,6.46-11.48-19.37h0ZM195.02,242.75l-11.5,6.46h22.98l-11.5-6.46h.01ZM181.99,91.62l3.85-6.48,3.85-6.48-7.69,4.32v8.64h-.01ZM187.33,96.8h15.38l-7.69-4.32-7.69,4.32h0ZM196.98,89.2l7.69,4.32-3.85-6.48-3.84-6.48v8.64ZM193.07,89.2v-8.64l-7.69,12.95,7.69-4.32h0ZM204.2,85.14l3.85,6.48v-8.64l-7.69-4.32,3.85,6.48h-.01ZM196.98,66.38l3.84-6.48,3.85-6.48-7.69,4.32v8.64ZM200.35,68.28l7.69-4.32v-8.64l-3.85,6.48-3.85,6.48h.01ZM202.31,75.37l7.69,4.32v-.02l.05.02,7.69-4.32h-15.43ZM193.39,276.92l-12.76,7.16v14.33l6.37-10.75,6.37-10.75h.01ZM187.02,263.02l-6.37-10.75v14.33l12.76,7.16-6.37-10.75h-.01ZM192.8,274.76l-12.76-7.16-.05.02v-.02l-12.76,7.16h25.56ZM194.44,258.85l-12.76-7.16,6.38,10.75,6.38,10.75v-14.34h-.01ZM203.58,25.24l6.42,3.61v-.02l.05.02,6.42-3.61h-12.89ZM207.19,251.02h-24.34l12.17,6.83,12.17-6.83ZM194.44,277.5l-6.38,10.75-6.38,10.75,12.76-7.16v-14.34h.01ZM180,275.93h-12.76l12.76,7.16v-.02l.05.02,12.76-7.16h-12.8ZM207.71,13.31v-7.21l-6.42,10.82,6.42-3.61ZM192.73,7.46l-6.42-3.61,6.42,10.82v-7.21ZM201.44,0h-12.85l6.42,3.6L201.43,0h.01ZM185.54,11.5l-3.2-5.41v7.21l6.42,3.61-3.22-5.41h0ZM197.32,14.69l6.42-10.82-6.42,3.61v7.21ZM203.58,20.77h12.89l-6.42-3.61-.05.02v-.02l-6.42,3.61ZM209.41,252.26l-6.38,10.75-6.38,10.75,12.76-7.16v-14.33h.01ZM182.27,300h25.51l-12.76-7.16-12.76,7.16h0ZM208.38,251.69l-12.76,7.16v14.34l6.38-10.75,6.38-10.75h-.01ZM197.32,38.53l6.42,3.61-6.42-10.82v7.21ZM207.71,39.91v-7.21l-6.42-3.61,6.42,10.82ZM195.62,277.5v14.34l12.76,7.16-6.38-10.75-6.38-10.75h.01ZM182.34,39.91l3.2-5.41,3.22-5.41-6.42,3.61v7.21h0ZM203.03,287.68l6.38,10.75v-14.33l-12.76-7.16,6.38,10.75h-.01ZM192.73,38.53v-7.21l-6.42,10.82s6.42-3.61,6.42-3.61ZM188.6,46.01h12.85l-6.42-3.61-6.42,3.61h-.01ZM167.32,14.69l6.42-10.82-6.42,3.61v7.21ZM171.44,0h-12.85l6.42,3.6L171.43,0h.01ZM163.07,66.38v-8.64l-7.69-4.32,7.69,12.95h0ZM151.99,63.96l7.69,4.32-3.85-6.48-3.85-6.48v8.64h.01ZM173.58,20.77h12.89l-6.42-3.61-.05.02v-.02l-6.42,3.61ZM177.71,13.31v-7.21l-6.42,10.82,6.42-3.61ZM162.73,7.46l-6.42-3.61,6.42,10.82v-7.21ZM151.66,114.62l8.95,5.03-4.48-7.55-4.48-7.55v10.07ZM161.54,177.79l-10.22,5.75v11.48l5.11-8.62,5.11-8.62h0ZM158.93,110.53l4.49,7.55v-10.06l-8.96-5.03,4.48,7.54ZM165.02,105.3l8.36-4.69h-16.74l8.36,4.69h.01ZM166.63,118.08l8.95-15.08-8.95,5.03v10.06ZM178.73,183.54l-10.22-5.75,5.11,8.62,5.11,8.62v-11.48h0ZM155.54,11.5l-3.2-5.41v7.21l6.42,3.61-3.22-5.41h0ZM180,181.37l.05.02,10.22-5.75h-20.5l10.22,5.75v-.02ZM163.75,179.03l-5.11,8.62-5.11,8.62,10.22-5.74v-11.48h0ZM165.02,192.66l-10.22,5.74h20.45l-10.22-5.74ZM171.41,187.64l-5.11-8.62v11.48l10.22,5.74-5.11-8.62h0ZM164.09,208.57l-11.5-6.46,5.75,9.68,5.75,9.68v-12.91h0ZM174.2,85.14l3.85,6.48v-8.64l-7.69-4.32,3.85,6.48h-.01ZM166.98,89.2l7.69,4.32-3.85-6.48-3.84-6.48v8.64ZM172.31,75.37l7.69,4.32v-.02l.05.02,7.69-4.32h-15.43ZM157.33,96.8h15.38l-7.69-4.32-7.69,4.32h0ZM164.44,258.85l-12.76-7.16,6.38,10.75,6.38,10.75v-14.34h-.01ZM163.07,89.2v-8.64l-7.69,12.95,7.69-4.32h0ZM177.19,251.02h-24.34l12.17,6.83,12.17-6.83ZM151.99,91.62l3.85-6.48,3.85-6.48-7.69,4.32v8.64h-.01ZM161.54,223.97l-11.5-6.46-.05.02v-.02l-11.5,6.46h23.04ZM156.72,212.71l-5.75-9.67v12.91l11.5,6.46-5.75-9.68h0ZM179.06,203.03l-11.5,19.36,11.5-6.46v-12.91h0ZM162.8,274.76l-12.76-7.16-.05.02v-.02l-12.76,7.16h25.56ZM157.02,263.02l-6.37-10.75v14.33l12.76,7.16-6.37-10.75h-.01ZM178.39,114.62v-10.07l-8.96,15.1,8.96-5.03ZM178.38,251.69l-12.76,7.16v14.34l6.38-10.75,6.38-10.75h-.01ZM170.35,68.28l7.69-4.32v-8.64l-3.85,6.48-3.85,6.48h.01ZM166.98,66.38l3.84-6.48,3.85-6.48-7.69,4.32v8.64ZM175.93,200.88h-21.8l10.9,6.12,10.91-6.12ZM179.41,252.26l-6.38,10.75-6.38,10.75,12.76-7.16v-14.33h.01ZM165.96,208.57v12.91l11.48-19.37-11.48,6.46h0ZM165.02,54.46l7.1-3.98h-14.21l7.1,3.98ZM150,275.93h-12.76l12.76,7.16v-.02l.05.02,12.76-7.16h-12.8ZM165.96,228.26v12.91l11.48,6.46-11.48-19.37h0ZM162.47,227.35l-11.5,6.46v12.91l5.75-9.67,5.75-9.68h0ZM164.09,228.26l-5.75,9.68-5.75,9.68,11.5-6.46v-12.91h0ZM178.73,153.8l-5.11,8.62-5.11,8.62,10.22-5.75v-11.48h0ZM165.02,242.75l-11.5,6.46h22.98l-11.5-6.46h.01ZM166.63,139.86l8.95,5.03-8.95-15.08v10.06ZM180,232.21l.05.02,11.5-6.46h-23.03l11.5,6.46v-.02h-.01ZM179.06,233.81l-11.5-6.46,11.5,19.36v-12.91h0ZM164.44,277.5l-6.38,10.75-6.38,10.75,12.76-7.16v-14.34h.01ZM165.62,277.5v14.34l12.76,7.16-6.38-10.75-6.38-10.75h.01ZM163.39,276.92l-12.76,7.16v14.33l6.37-10.75,6.37-10.75h.01ZM152.27,300h25.51l-12.76-7.16s-12.76,7.16-12.76,7.16ZM156.07,147.6h17.92l-8.96-5.03-8.95,5.03h0ZM178.39,143.32v-10.07l-8.96-5.03,8.96,15.1ZM154.45,144.89l8.96-5.03v-10.06l-4.49,7.55-4.48,7.54ZM171.05,122.36h17.95l-8.95-5.03-.05.02v-.02l-8.95,5.03ZM151.66,143.32l4.48-7.55,4.48-7.55-8.95,5.03v10.07ZM173.03,287.68l6.38,10.75v-14.33l-12.76-7.16,6.38,10.75h-.01ZM173.58,25.24l6.42,3.61v-.02l.05.02,6.42-3.61h-12.89ZM177.71,39.91v-7.21l-6.42-3.61,6.42,10.82ZM167.32,38.53l6.42,3.61-6.42-10.82v7.21ZM158.6,46.01h12.85l-6.42-3.61-6.42,3.61h-.01ZM163.75,158.29l-10.22-5.74,5.11,8.62,5.11,8.62v-11.48h0ZM160.27,173.17l-10.22-5.75-.05.02v-.02l-10.22,5.75h20.5ZM174.66,150.74h-19.27l9.64,5.41,9.64-5.41ZM176.52,152.56l-10.22,5.74v11.48l5.11-8.62,5.11-8.62h0ZM172.31,71.57h15.42l-7.69-4.32-.05.02v-.02l-7.69,4.32h.01ZM171.05,125.51l8.95,5.03v-.02l.05.02,8.95-5.03h-17.95ZM156.43,162.41l-5.11-8.62v11.48l10.22,5.75-5.11-8.62h0ZM152.34,39.91l3.2-5.41,3.22-5.41-6.42,3.61s0,7.21,0,7.21ZM162.73,38.53v-7.21l-6.42,10.82s6.42-3.61,6.42-3.61ZM147.19,251.02h-24.34l12.17,6.83,12.17-6.83ZM135.62,277.5v14.34l12.76,7.16-6.38-10.75-6.38-10.75h.01ZM143.03,287.68l6.38,10.75v-14.33l-12.76-7.16,6.38,10.75h-.01ZM148.38,251.69l-12.76,7.16v14.34l6.38-10.75,6.38-10.75h-.01ZM135.96,208.57v12.91l11.48-19.37-11.48,6.46ZM149.06,203.03l-11.5,19.36,11.5-6.46v-12.91h0ZM145.93,200.88h-21.8l10.9,6.12,10.91-6.12ZM134.09,208.57l-11.5-6.46,5.75,9.68,5.75,9.68v-12.91h0ZM122.27,300h25.51l-12.76-7.16s-12.76,7.16-12.76,7.16ZM149.41,252.26l-6.38,10.75-6.38,10.75,12.76-7.16v-14.33h.01ZM142.31,71.57h15.42l-7.69-4.32-.05.02v-.02l-7.69,4.32h.01ZM131.54,223.97l-11.5-6.46-.05.02v-.02l-11.5,6.46h23.04ZM126.72,212.71l-5.75-9.67v12.91l11.5,6.46-5.75-9.68h0ZM136.98,89.2l7.69,4.32-3.85-6.48-3.84-6.48v8.64ZM144.2,85.14l3.85,6.48v-8.64l-7.69-4.32,3.85,6.48h-.01ZM127.33,96.8h15.38l-7.69-4.32-7.69,4.32ZM141.05,122.36h17.95l-8.95-5.03-.05.02v-.02l-8.95,5.03ZM142.31,75.37l7.69,4.32v-.02l.05.02,7.69-4.32h-15.43ZM121.99,91.62l3.85-6.48,3.85-6.48-7.69,4.32v8.64h-.01ZM137.32,14.69l6.42-10.82-6.42,3.61v7.21ZM150,181.37l.05.02,10.22-5.75h-20.5l10.22,5.75v-.02ZM135.02,192.66l-10.22,5.74h20.45s-10.22-5.74-10.22-5.74ZM141.41,187.64l-5.11-8.62v11.48l10.22,5.74-5.11-8.62h0ZM148.73,183.54l-10.22-5.75,5.11,8.62,5.11,8.62v-11.48h0ZM144.66,150.74h-19.27l9.64,5.41,9.64-5.41ZM148.73,153.8l-5.11,8.62-5.11,8.62,10.22-5.75v-11.48h0ZM146.52,152.56l-10.22,5.74v11.48l5.11-8.62,5.11-8.62h0ZM131.54,177.79l-10.22,5.75v11.48l5.11-8.62s5.11-8.62,5.11-8.62ZM136.63,118.08l8.95-15.08-8.95,5.03v10.06ZM148.39,114.62v-10.07l-8.96,15.1,8.96-5.03ZM135.02,105.3l8.36-4.69h-16.74l8.36,4.69h.01ZM128.93,110.53l4.49,7.55v-10.06l-8.96-5.03,4.48,7.54ZM133.75,179.03l-5.11,8.62-5.11,8.62,10.22-5.74v-11.48h0ZM133.75,158.29l-10.22-5.74,5.11,8.62,5.11,8.62v-11.48h0ZM121.66,114.62l8.95,5.03-4.48-7.55-4.48-7.55s0,10.07,0,10.07ZM136.63,139.86l8.95,5.03-8.95-15.08v10.06ZM148.39,143.32v-10.07l-8.96-5.03,8.96,15.1ZM134.44,277.5l-6.38,10.75-6.38,10.75,12.76-7.16v-14.34h.01ZM126.07,147.6h17.92l-8.96-5.03-8.95,5.03ZM124.45,144.89l8.96-5.03v-10.06l-4.49,7.55-4.48,7.54ZM141.05,125.51l8.95,5.03v-.02l.05.02,8.95-5.03h-17.95ZM133.39,276.92l-12.76,7.16v14.33l6.37-10.75,6.37-10.75h.01ZM120,275.93h-12.76l12.76,7.16v-.02l.05.02,12.76-7.16h-12.8ZM147.71,13.31v-7.21l-6.42,10.82,6.42-3.61ZM141.44,0h-12.85l6.42,3.6L141.43,0h.01ZM125.54,11.5l-3.2-5.41v7.21l6.42,3.61-3.22-5.41ZM132.73,7.46l-6.42-3.61,6.42,10.82v-7.21ZM126.43,162.41l-5.11-8.62v11.48l10.22,5.75-5.11-8.62h0ZM130.27,173.17l-10.22-5.75-.05.02v-.02l-10.22,5.75h20.5ZM143.58,20.77h12.89l-6.42-3.61-.05.02v-.02l-6.42,3.61ZM121.66,143.32l4.48-7.55,4.48-7.55-8.95,5.03s0,10.07,0,10.07ZM133.07,89.2v-8.64l-7.69,12.95,7.69-4.32h0ZM134.09,228.26l-5.75,9.68-5.75,9.68,11.5-6.46v-12.91h0ZM135.02,242.75l-11.5,6.46h22.98l-11.5-6.46h.01ZM135.96,228.26v12.91l11.48,6.46-11.48-19.37ZM150,232.21l.05.02,11.5-6.46h-23.03l11.5,6.46v-.02h-.01ZM149.06,233.81l-11.5-6.46,11.5,19.36v-12.91h0ZM132.47,227.35l-11.5,6.46v12.91l5.75-9.67,5.75-9.68h0ZM134.44,258.85l-12.76-7.16,6.38,10.75,6.38,10.75v-14.34h-.01ZM136.98,66.38l3.84-6.48,3.85-6.48-7.69,4.32s0,8.64,0,8.64ZM135.02,54.46l7.1-3.98h-14.21s7.1,3.98,7.1,3.98ZM133.07,66.38v-8.64l-7.69-4.32,7.69,12.95h0ZM140.35,68.28l7.69-4.32v-8.64l-3.85,6.48-3.85,6.48h.01ZM121.99,63.96l7.69,4.32-3.85-6.48-3.85-6.48v8.64h.01ZM132.73,38.53v-7.21l-6.42,10.82s6.42-3.61,6.42-3.61ZM128.6,46.01h12.85l-6.42-3.61-6.42,3.61h-.01ZM122.34,39.91l3.2-5.41,3.22-5.41-6.42,3.61v7.21ZM147.71,39.91v-7.21l-6.42-3.61,6.42,10.82ZM137.32,38.53l6.42,3.61-6.42-10.82v7.21ZM127.02,263.02l-6.37-10.75v14.33l12.76,7.16-6.37-10.75h-.01ZM132.8,274.76l-12.76-7.16-.05.02v-.02l-12.76,7.16h25.56ZM143.58,25.24l6.42,3.61v-.02l.05.02,6.42-3.61h-12.89ZM105.02,192.66l-10.22,5.74h20.45s-10.22-5.74-10.22-5.74ZM98.93,110.53l4.49,7.55v-10.06l-8.96-5.03,4.48,7.54ZM105.02,105.3l8.36-4.69h-16.74l8.36,4.69h.01ZM111.41,187.64l-5.11-8.62v11.48l10.22,5.74-5.11-8.62h0ZM118.73,183.54l-10.22-5.75,5.11,8.62,5.11,8.62v-11.48h0ZM102.47,227.35l-11.5,6.46v12.91l5.75-9.67,5.75-9.68h0ZM120,181.37l.05.02,10.22-5.75h-20.5l10.22,5.75v-.02ZM101.54,177.79l-10.22,5.75v11.48l5.11-8.62s5.11-8.62,5.11-8.62ZM91.66,114.62l8.95,5.03-4.48-7.55-4.48-7.55s0,10.07,0,10.07ZM104.09,228.26l-5.75,9.68-5.75,9.68,11.5-6.46v-12.91h0ZM106.63,118.08l8.95-15.08-8.95,5.03v10.06ZM117.71,39.91v-7.21l-6.42-3.61,6.42,10.82ZM118.39,114.62v-10.07l-8.96,15.1,8.96-5.03ZM105.02,54.46l7.1-3.98h-14.21s7.1,3.98,7.1,3.98ZM95.54,11.5l-3.2-5.41v7.21l6.42,3.61-3.22-5.41ZM91.99,63.96l7.69,4.32-3.85-6.48-3.85-6.48v8.64h.01ZM106.98,66.38l3.84-6.48,3.85-6.48-7.69,4.32s0,8.64,0,8.64ZM110.35,68.28l7.69-4.32v-8.64l-3.85,6.48-3.85,6.48h.01ZM112.31,71.57h15.42l-7.69-4.32-.05.02v-.02l-7.69,4.32h.01ZM103.07,66.38v-8.64l-7.69-4.32,7.69,12.95h0ZM111.44,0h-12.85l6.42,3.6L111.43,0h.01ZM102.73,7.46l-6.42-3.61,6.42,10.82v-7.21ZM117.71,13.31v-7.21l-6.42,10.82,6.42-3.61ZM107.32,14.69l6.42-10.82-6.42,3.61v7.21ZM113.58,20.77h12.89l-6.42-3.61-.05.02v-.02l-6.42,3.61ZM103.75,179.03l-5.11,8.62-5.11,8.62,10.22-5.74v-11.48h0ZM90,275.93h-12.76l12.76,7.16v-.02l.05.02,12.76-7.16h-12.8ZM103.39,276.92l-12.76,7.16v14.33l6.37-10.75,6.37-10.75h.01ZM104.44,277.5l-6.38,10.75-6.38,10.75,12.76-7.16v-14.34h.01ZM111.05,122.36h17.95l-8.95-5.03-.05.02v-.02l-8.95,5.03ZM92.27,300h25.51l-12.76-7.16s-12.76,7.16-12.76,7.16ZM120,232.21l.05.02,11.5-6.46h-23.03l11.5,6.46v-.02h-.01ZM119.06,233.81l-11.5-6.46,11.5,19.36v-12.91h0ZM98.6,46.01h12.85l-6.42-3.61-6.42,3.61h-.01ZM102.73,38.53v-7.21l-6.42,10.82s6.42-3.61,6.42-3.61ZM107.32,38.53l6.42,3.61-6.42-10.82v7.21ZM92.34,39.91l3.2-5.41,3.22-5.41-6.42,3.61v7.21ZM113.58,25.24l6.42,3.61v-.02l.05.02,6.42-3.61h-12.89ZM113.03,287.68l6.38,10.75v-14.33l-12.76-7.16,6.38,10.75h-.01ZM111.05,125.51l8.95,5.03v-.02l.05.02,8.95-5.03h-17.95ZM114.66,150.74h-19.27l9.64,5.41,9.64-5.41ZM100.27,173.17l-10.22-5.75-.05.02v-.02l-10.22,5.75h20.5ZM96.43,162.41l-5.11-8.62v11.48l10.22,5.75-5.11-8.62h0ZM103.75,158.29l-10.22-5.74,5.11,8.62,5.11,8.62v-11.48h0ZM116.52,152.56l-10.22,5.74v11.48l5.11-8.62,5.11-8.62h0ZM118.73,153.8l-5.11,8.62-5.11,8.62,10.22-5.75v-11.48h0ZM91.66,143.32l4.48-7.55,4.48-7.55-8.95,5.03s0,10.07,0,10.07ZM106.63,139.86l8.95,5.03-8.95-15.08v10.06ZM118.39,143.32v-10.07l-8.96-5.03,8.96,15.1ZM105.96,228.26v12.91l11.48,6.46-11.48-19.37ZM105.02,242.75l-11.5,6.46h22.98l-11.5-6.46h.01ZM94.45,144.89l8.96-5.03v-10.06l-4.49,7.55-4.48,7.54ZM96.07,147.6h17.92l-8.96-5.03-8.95,5.03ZM105.62,277.5v14.34l12.76,7.16-6.38-10.75-6.38-10.75h.01ZM97.33,96.8h15.38l-7.69-4.32-7.69,4.32ZM103.07,89.2v-8.64l-7.69,12.95,7.69-4.32h0ZM114.2,85.14l3.85,6.48v-8.64l-7.69-4.32,3.85,6.48h-.01ZM112.31,75.37l7.69,4.32v-.02l.05.02,7.69-4.32h-15.43ZM105.96,208.57v12.91l11.48-19.37-11.48,6.46ZM106.98,89.2l7.69,4.32-3.85-6.48-3.84-6.48v8.64ZM101.54,223.97l-11.5-6.46-.05.02v-.02l-11.5,6.46h23.04ZM91.99,91.62l3.85-6.48,3.85-6.48-7.69,4.32v8.64h-.01ZM104.09,208.57l-11.5-6.46,5.75,9.68,5.75,9.68v-12.91h0ZM96.72,212.71l-5.75-9.67v12.91l11.5,6.46-5.75-9.68h0ZM115.93,200.88h-21.8l10.9,6.12,10.91-6.12ZM119.06,203.03l-11.5,19.36,11.5-6.46v-12.91h0ZM104.44,258.85l-12.76-7.16,6.38,10.75,6.38,10.75v-14.34h-.01ZM97.02,263.02l-6.37-10.75v14.33l12.76,7.16-6.37-10.75h-.01ZM102.8,274.76l-12.76-7.16-.05.02v-.02l-12.76,7.16h25.56ZM117.19,251.02h-24.34l12.17,6.83,12.17-6.83ZM118.38,251.69l-12.76,7.16v14.34l6.38-10.75,6.38-10.75h-.01ZM119.41,252.26l-6.38,10.75-6.38,10.75,12.76-7.16v-14.33h.01ZM75.96,228.26v12.91l11.48,6.46s-11.48-19.37-11.48-19.37ZM89.06,233.81l-11.5-6.46,11.5,19.36v-12.91h0ZM74.09,228.26l-5.75,9.68-5.75,9.68,11.5-6.46v-12.91h0ZM74.09,208.57l-11.5-6.46,5.75,9.68,5.75,9.68v-12.91h0ZM76.63,139.86l8.95,5.03-8.95-15.08v10.06ZM81.05,125.51l8.95,5.03v-.02l.05.02,8.95-5.03h-17.95ZM66.72,212.71l-5.75-9.67v12.91l11.5,6.46-5.75-9.68h0ZM73.39,276.92l-12.76,7.16v14.33l6.37-10.75,6.37-10.75h.01ZM88.39,143.32v-10.07l-8.96-5.03,8.96,15.1ZM71.54,223.97l-11.5-6.46-.05.02v-.02l-11.5,6.46h23.04ZM76.98,89.2l7.69,4.32-3.85-6.48-3.84-6.48v8.64ZM73.07,89.2v-8.64l-7.69,12.95,7.69-4.32h0ZM60,275.93h-12.76l12.76,7.16v-.02l.05.02,12.76-7.16h-12.8ZM90,181.37l.05.02,10.22-5.75h-20.5l10.22,5.75v-.02ZM71.54,177.79l-10.22,5.75v11.48l5.11-8.62s5.11-8.62,5.11-8.62ZM67.33,96.8h15.38l-7.69-4.32-7.69,4.32ZM75.02,192.66l-10.22,5.74h20.45l-10.22-5.74ZM88.73,183.54l-10.22-5.75,5.11,8.62,5.11,8.62v-11.48h0ZM73.75,179.03l-5.11,8.62-5.11,8.62,10.22-5.74v-11.48h0ZM81.41,187.64l-5.11-8.62v11.48l10.22,5.74-5.11-8.62h0ZM75.02,242.75l-11.5,6.46h22.98l-11.5-6.46h.01ZM75.02,105.3l8.36-4.69h-16.74l8.36,4.69h.01ZM61.99,91.62l3.85-6.48,3.85-6.48-7.69,4.32v8.64h-.01ZM88.39,114.62v-10.07l-8.96,15.1,8.96-5.03ZM76.63,118.08l8.95-15.08-8.95,5.03v10.06ZM70.27,173.17l-10.22-5.75-.05.02v-.02l-10.22,5.75h20.5ZM86.52,152.56l-10.22,5.74v11.48l5.11-8.62,5.11-8.62h0ZM84.66,150.74h-19.27l9.64,5.41,9.64-5.41ZM66.43,162.41l-5.11-8.62v11.48l10.22,5.75-5.11-8.62h0ZM73.75,158.29l-10.22-5.74,5.11,8.62,5.11,8.62v-11.48h0ZM64.45,144.89l8.96-5.03v-10.06l-4.49,7.55-4.48,7.54ZM88.73,153.8l-5.11,8.62-5.11,8.62,10.22-5.75v-11.48h0ZM90,232.21l.05.02,11.5-6.46h-23.03l11.5,6.46v-.02h-.01ZM61.66,143.32l4.48-7.55,4.48-7.55-8.95,5.03v10.07ZM66.07,147.6h17.92l-8.96-5.03s-8.95,5.03-8.95,5.03ZM72.47,227.35l-11.5,6.46v12.91l5.75-9.67,5.75-9.68h0ZM68.93,110.53l4.49,7.55v-10.06l-8.96-5.03,4.48,7.54ZM61.66,114.62l8.95,5.03-4.48-7.55-4.48-7.55v10.07ZM75.62,277.5v14.34l12.76,7.16-6.38-10.75-6.38-10.75h.01ZM62.27,300h25.51l-12.76-7.16-12.76,7.16ZM74.44,277.5l-6.38,10.75-6.38,10.75,12.76-7.16v-14.34h.01ZM76.98,66.38l3.84-6.48,3.85-6.48-7.69,4.32s0,8.64,0,8.64ZM75.02,54.46l7.1-3.98h-14.21s7.1,3.98,7.1,3.98ZM68.6,46.01h12.85l-6.42-3.61-6.42,3.61h-.01ZM80.35,68.28l7.69-4.32v-8.64l-3.85,6.48-3.85,6.48h.01ZM77.32,38.53l6.42,3.61-6.42-10.82v7.21ZM73.07,66.38v-8.64l-7.69-4.32,7.69,12.95h0ZM83.58,20.77h12.89l-6.42-3.61-.05.02v-.02l-6.42,3.61ZM84.2,85.14l3.85,6.48v-8.64l-7.69-4.32,3.85,6.48h-.01ZM61.99,63.96l7.69,4.32-3.85-6.48-3.85-6.48v8.64h.01ZM72.73,38.53v-7.21l-6.42,10.82s6.42-3.61,6.42-3.61ZM81.05,122.36h17.95l-8.95-5.03-.05.02v-.02l-8.95,5.03ZM88.38,251.69l-12.76,7.16v14.34l6.38-10.75,6.38-10.75h-.01ZM87.19,251.02h-24.34l12.17,6.83,12.17-6.83ZM89.41,252.26l-6.38,10.75-6.38,10.75,12.76-7.16v-14.33h.01ZM82.31,71.57h15.42l-7.69-4.32-.05.02v-.02l-7.69,4.32h.01ZM87.71,13.31v-7.21l-6.42,10.82,6.42-3.61ZM87.71,39.91v-7.21l-6.42-3.61,6.42,10.82ZM74.44,258.85l-12.76-7.16,6.38,10.75,6.38,10.75v-14.34h-.01ZM72.8,274.76l-12.76-7.16-.05.02v-.02l-12.76,7.16h25.56ZM83.58,25.24l6.42,3.61v-.02l.05.02,6.42-3.61h-12.89ZM67.02,263.02l-6.37-10.75v14.33l12.76,7.16-6.37-10.75h-.01ZM62.34,39.91l3.2-5.41,3.22-5.41-6.42,3.61s0,7.21,0,7.21ZM75.96,208.57v12.91l11.48-19.37s-11.48,6.46-11.48,6.46ZM65.54,11.5l-3.2-5.41v7.21l6.42,3.61s-3.22-5.41-3.22-5.41ZM77.32,14.69l6.42-10.82-6.42,3.61v7.21ZM83.03,287.68l6.38,10.75v-14.33l-12.76-7.16,6.38,10.75h-.01ZM82.31,75.37l7.69,4.32v-.02l.05.02,7.69-4.32h-15.43ZM85.93,200.88h-21.8l10.9,6.12,10.91-6.12ZM89.06,203.03l-11.5,19.36,11.5-6.46v-12.91h0ZM72.73,7.46l-6.42-3.61,6.42,10.82v-7.21ZM81.44,0h-12.85l6.42,3.6L81.43,0h.01ZM58.39,143.32v-10.07l-8.96-5.03,8.96,15.1ZM45.96,228.26v12.91l11.48,6.46-11.48-19.37ZM59.06,233.81l-11.5-6.46,11.5,19.36v-12.91h0ZM60,232.21l.05.02,11.5-6.46h-23.03l11.5,6.46v-.02h-.01ZM41.54,223.97l-11.5-6.46-.05.02v-.02l-11.5,6.46h23.04ZM32.34,39.91l3.2-5.41,3.22-5.41-6.42,3.61s0,7.21,0,7.21ZM38.6,46.01h12.85l-6.42-3.61-6.42,3.61h-.01ZM42.73,38.53v-7.21l-6.42,10.82s6.42-3.61,6.42-3.61ZM46.63,139.86l8.95,5.03-8.95-15.08v10.06ZM44.44,277.5l-6.38,10.75-6.38,10.75,12.76-7.16v-14.34h.01ZM45.62,277.5v14.34l12.76,7.16-6.38-10.75-6.38-10.75h.01ZM32.27,300h25.51l-12.76-7.16-12.76,7.16ZM43.39,276.92l-12.76,7.16v14.33l6.37-10.75,6.37-10.75h.01ZM51.05,122.36h17.95l-8.95-5.03-.05.02v-.02l-8.95,5.03ZM51.05,125.51l8.95,5.03v-.02l.05.02,8.95-5.03h-17.95ZM30,275.93h-12.76l12.76,7.16v-.02l.05.02,12.76-7.16h-12.8ZM52.31,71.57h15.42l-7.69-4.32-.05.02v-.02l-7.69,4.32h.01ZM53.03,287.68l6.38,10.75v-14.33l-12.76-7.16,6.38,10.75h-.01ZM43.07,89.2v-8.64l-7.69,12.95,7.69-4.32h0ZM40.27,173.17l-10.22-5.75-.05.02v-.02l-10.22,5.75h20.5ZM31.66,143.32l4.48-7.55,4.48-7.55-8.95,5.03s0,10.07,0,10.07ZM34.45,144.89l8.96-5.03v-10.06l-4.49,7.55-4.48,7.54ZM36.43,162.41l-5.11-8.62v11.48l10.22,5.75-5.11-8.62h0ZM36.72,212.71l-5.75-9.67v12.91l11.5,6.46-5.75-9.68h0ZM43.75,158.29l-10.22-5.74,5.11,8.62,5.11,8.62v-11.48h0ZM44.09,208.57l-11.5-6.46,5.75,9.68,5.75,9.68v-12.91h0ZM55.93,200.88h-21.8l10.9,6.12,10.91-6.12ZM31.99,91.62l3.85-6.48,3.85-6.48-7.69,4.32v8.64h-.01ZM36.07,147.6h17.92l-8.96-5.03s-8.95,5.03-8.95,5.03ZM57.71,39.91v-7.21l-6.42-3.61,6.42,10.82ZM47.32,38.53l6.42,3.61-6.42-10.82v7.21ZM59.41,252.26l-6.38,10.75-6.38,10.75,12.76-7.16v-14.33h.01ZM53.58,25.24l6.42,3.61v-.02l.05.02,6.42-3.61h-12.89ZM58.73,153.8l-5.11,8.62-5.11,8.62,10.22-5.75v-11.48h0ZM59.06,203.03l-11.5,19.36,11.5-6.46v-12.91h0ZM54.66,150.74h-19.27l9.64,5.41,9.64-5.41ZM56.52,152.56l-10.22,5.74v11.48l5.11-8.62,5.11-8.62h0ZM45.96,208.57v12.91l11.48-19.37-11.48,6.46ZM52.31,75.37l7.69,4.32v-.02l.05.02,7.69-4.32h-15.43ZM38.93,110.53l4.49,7.55v-10.06l-8.96-5.03s4.48,7.54,4.48,7.54ZM45.02,105.3l8.36-4.69h-16.74l8.36,4.69h.01ZM31.66,114.62l8.95,5.03-4.48-7.55-4.48-7.55s0,10.07,0,10.07ZM41.54,177.79l-10.22,5.75v11.48l5.11-8.62,5.11-8.62ZM51.44,0h-12.85l6.42,3.6L51.43,0h.01ZM43.75,179.03l-5.11,8.62-5.11,8.62,10.22-5.74v-11.48h0ZM46.63,118.08l8.95-15.08-8.95,5.03v10.06ZM54.2,85.14l3.85,6.48v-8.64l-7.69-4.32,3.85,6.48h-.01ZM42.47,227.35l-11.5,6.46v12.91l5.75-9.67,5.75-9.68h0ZM44.09,228.26l-5.75,9.68-5.75,9.68,11.5-6.46v-12.91h0ZM45.02,242.75l-11.5,6.46h22.98l-11.5-6.46h.01ZM37.33,96.8h15.38l-7.69-4.32-7.69,4.32ZM58.39,114.62v-10.07l-8.96,15.1,8.96-5.03ZM51.41,187.64l-5.11-8.62v11.48l10.22,5.74-5.11-8.62h0ZM46.98,89.2l7.69,4.32-3.85-6.48-3.84-6.48v8.64ZM45.02,192.66l-10.22,5.74h20.45l-10.22-5.74ZM57.19,251.02h-24.34l12.17,6.83,12.17-6.83ZM58.73,183.54l-10.22-5.75,5.11,8.62,5.11,8.62v-11.48h0ZM58.38,251.69l-12.76,7.16v14.34l6.38-10.75,6.38-10.75h-.01ZM37.02,263.02l-6.37-10.75v14.33l12.76,7.16-6.37-10.75h-.01ZM42.8,274.76l-12.76-7.16-.05.02v-.02l-12.76,7.16h25.56ZM44.44,258.85l-12.76-7.16,6.38,10.75,6.38,10.75v-14.34h-.01ZM53.58,20.77h12.89l-6.42-3.61-.05.02v-.02l-6.42,3.61ZM50.35,68.28l7.69-4.32v-8.64l-3.85,6.48-3.85,6.48h.01ZM31.99,63.96l7.69,4.32-3.85-6.48-3.85-6.48v8.64h.01ZM57.71,13.31v-7.21l-6.42,10.82,6.42-3.61ZM43.07,66.38v-8.64l-7.69-4.32,7.69,12.95h0ZM60,181.37l.05.02,10.22-5.75h-20.5l10.22,5.75s0-.02,0-.02ZM45.02,54.46l7.1-3.98h-14.21s7.1,3.98,7.1,3.98ZM47.32,14.69l6.42-10.82-6.42,3.61v7.21ZM46.98,66.38l3.84-6.48,3.85-6.48-7.69,4.32v8.64ZM42.73,7.46l-6.42-3.61,6.42,10.82v-7.21ZM35.54,11.5l-3.2-5.41v7.21l6.42,3.61s-3.22-5.41-3.22-5.41ZM.05,267.6l-.05.02v7.14h12.8L.05,267.6ZM11.54,225.78H0v6.43l.05.02,11.5-6.46ZM.05,217.51l-.05.02v6.43h11.54L.05,217.51ZM0,275.93v7.14l.05.02,12.76-7.16H0ZM23.03,287.68l6.38,10.75v-14.33l-12.76-7.16,6.38,10.75h-.01ZM10.27,175.64H0v5.72l.05.02,10.22-5.75h0ZM15.62,277.5v14.34l12.76,7.16-6.38-10.75-6.38-10.75h.01ZM14.44,277.5l-6.38,10.75-6.38,10.75,12.76-7.16v-14.34h.01ZM13.39,276.92l-12.76,7.16v14.33l6.37-10.75,6.37-10.75h.01ZM13.07,66.38v-8.64l-7.69-4.32,7.69,12.95h0ZM2.27,300h25.51l-12.76-7.16s-12.76,7.16-12.76,7.16ZM29.41,252.26l-6.38,10.75-6.38,10.75,12.76-7.16v-14.33h.01ZM13.07,89.2v-8.64l-7.69,12.95,7.69-4.32h0ZM16.98,66.38l3.84-6.48,3.85-6.48-7.69,4.32s0,8.64,0,8.64ZM8.93,110.53l4.49,7.55v-10.06l-8.96-5.03s4.48,7.54,4.48,7.54ZM15.02,54.46l7.1-3.98H7.92l7.1,3.98ZM20.35,68.28l7.69-4.32v-8.64l-3.85,6.48-3.85,6.48h.01ZM.05,167.42l-.05.02v5.72h10.27L.05,167.42ZM9,125.51H0v5l.05.02s8.95-5.03,8.95-5.03ZM.05,117.34l-.05.02v5h9L.05,117.34ZM17.32,38.53l6.42,3.61-6.42-10.82v7.21ZM1.66,114.62l8.95,5.03-4.48-7.55-4.48-7.55s0,10.07,0,10.07ZM1.99,63.96l7.69,4.32-3.85-6.48-3.85-6.48v8.64h.01ZM12.73,38.53v-7.21l-6.42,10.82s6.42-3.61,6.42-3.61ZM2.34,39.91l3.2-5.41,3.22-5.41-6.42,3.61s0,7.21,0,7.21ZM1.99,91.62l3.85-6.48,3.85-6.48-7.69,4.32v8.64h-.01ZM1.32,195.01l5.11-8.62,5.11-8.62-10.22,5.75v11.48h0ZM22.31,71.57h15.42l-7.69-4.32-.05.02v-.02l-7.69,4.32h.01ZM1.32,165.28l10.22,5.75-5.11-8.62-5.11-8.62v11.48h0ZM28.38,251.69l-12.76,7.16v14.34l6.38-10.75,6.38-10.75h-.01ZM1.66,143.32l4.48-7.55,4.48-7.55-8.95,5.03s0,10.07,0,10.07ZM.98,246.72l5.75-9.67,5.75-9.68-11.5,6.46v12.91h0ZM21.05,122.36h17.95l-8.95-5.03-.05.02v-.02l-8.95,5.03ZM14.44,258.85l-12.76-7.16,6.38,10.75,6.38,10.75v-14.34h-.01ZM27.19,251.02H2.86l12.17,6.83,12.17-6.83ZM.64,252.26v14.33l12.76,7.16-6.37-10.75-6.37-10.75h-.01ZM4.45,144.89l8.96-5.03v-10.06l-4.49,7.55s-4.48,7.54-4.48,7.54ZM8.6,46.01h12.85l-6.42-3.61-6.42,3.61h-.01ZM23.58,25.24l6.42,3.61v-.02l.05.02,6.42-3.61h-12.89ZM27.71,39.91v-7.21l-6.42-3.61,6.42,10.82ZM22.31,75.37l7.69,4.32v-.02l.05.02,7.69-4.32h-15.43ZM24.2,85.14l3.85,6.48v-8.64l-7.69-4.32,3.85,6.48h-.01ZM28.39,143.32v-10.07l-8.96-5.03,8.96,15.1ZM18.5,171.02l10.22-5.75v-11.48l-5.11,8.62-5.11,8.62h0ZM8.34,211.8l5.75,9.68v-12.91l-11.5-6.46,5.75,9.68ZM3.53,196.25l10.22-5.74v-11.48l-5.11,8.62-5.11,8.62h0ZM23.58,20.77h12.89l-6.42-3.61-.05.02v-.02s-6.42,3.61-6.42,3.61ZM21.05,125.51l8.95,5.03v-.02l.05.02,8.95-5.03h-17.95ZM8.64,161.17l5.11,8.62v-11.48l-10.22-5.74,5.11,8.62h0ZM15.02,156.16l9.64-5.41H5.39s9.64,5.41,9.64,5.41ZM7.33,96.8h15.38l-7.69-4.32s-7.69,4.32-7.69,4.32ZM15.02,105.3l8.36-4.69H6.65l8.36,4.69h.01ZM15.02,242.75l-11.5,6.46h22.98l-11.5-6.46h.01ZM16.98,89.2l7.69,4.32-3.85-6.48-3.84-6.48s0,8.64,0,8.64ZM23.99,147.6l-8.96-5.03-8.95,5.03s17.92,0,17.92,0ZM27.71,13.31v-7.21l-6.42,10.82,6.42-3.61ZM30,232.21l.05.02,11.5-6.46h-23.04l11.5,6.46v-.02ZM15.96,228.26v12.91l11.48,6.46s-11.48-19.37-11.48-19.37ZM8.34,237.95l-5.75,9.68,11.5-6.46v-12.91l-5.75,9.68h0ZM29.06,233.81l-11.5-6.46,11.5,19.36v-12.91h0ZM.98,215.94l11.5,6.46-5.75-9.68-5.75-9.67v12.91h0ZM28.73,183.54l-10.22-5.75,5.11,8.62,5.11,8.62v-11.48h0ZM30,181.37l.05.02,10.22-5.75h-20.5l10.22,5.75s0-.02,0-.02ZM5.54,11.5l-3.2-5.41v7.21l6.42,3.61-3.22-5.41ZM16.3,179.03v11.48l10.22,5.74-5.11-8.62-5.11-8.62h0ZM12.73,7.46l-6.42-3.61,6.42,10.82v-7.21ZM.05,67.25l-.05.02v4.3h7.74L.05,67.25ZM7.74,75.37H0v4.3l.05.02s7.69-4.32,7.69-4.32ZM.05,17.16l-.05.02v3.59h6.47L.05,17.16ZM6.47,25.24H0v3.59l.05.02,6.42-3.61ZM16.63,139.86l8.95,5.03-8.95-15.08v10.06ZM16.63,118.08l8.95-15.08-8.95,5.03v10.06ZM28.39,114.62v-10.07l-8.96,15.1,8.96-5.03ZM17.32,14.69l6.42-10.82-6.42,3.61v7.21ZM21.44,0h-12.84l6.42,3.6L21.44,0ZM16.3,169.79l5.11-8.62,5.11-8.62-10.22,5.74v11.48h0ZM15.96,208.57v12.91l11.48-19.37s-11.48,6.46-11.48,6.46ZM29.06,203.03l-11.5,19.36,11.5-6.46v-12.91h0ZM15.02,207l10.91-6.12H4.12l10.9,6.12h.01ZM25.25,198.4l-10.22-5.74-10.22,5.74h20.45Z"/></svg>