<svg width="200" height="60" viewBox="0 0 200 60" fill="none" xmlns="http://www.w3.org/2000/svg">
  <!-- Cloud base -->
  <ellipse cx="50" cy="45" rx="15" ry="8" fill="rgb(110, 180, 230)" opacity="0.6"/>
  <ellipse cx="30" cy="48" rx="12" ry="7" fill="rgb(110, 180, 230)" opacity="0.6"/>
  <ellipse cx="35" cy="43" rx="13" ry="8" fill="rgb(110, 180, 230)" opacity="0.6"/>
  <ellipse cx="20" cy="45" rx="10" ry="6" fill="rgb(110, 180, 230)" opacity="0.6"/>

  <!-- Hexagons -->
  <g transform="translate(35, 25)">
    <polygon points="0,-6 5.2,-3 5.2,3 0,6 -5.2,3 -5.2,-3" stroke="rgb(160, 200, 240)" stroke-width="1.5" fill="none"/>
    <polygon points="10.4,-3 15.6,0 15.6,6 10.4,9 5.2,6 5.2,0" stroke="rgb(160, 200, 240)" stroke-width="1.5" fill="none"/>
    <polygon points="20.8,0 26,3 26,9 20.8,12 15.6,9 15.6,3" stroke="rgb(160, 200, 240)" stroke-width="1.5" fill="none"/>
    <polygon points="10.4,-12 15.6,-9 15.6,-3 10.4,0 5.2,-3 5.2,-9" stroke="rgb(110, 180, 230)" stroke-width="1.5" fill="rgb(110, 180, 230)" opacity="0.3"/>
    <polygon points="20.8,-9 26,-6 26,0 20.8,3 15.6,0 15.6,-6" stroke="rgb(110, 180, 230)" stroke-width="1.5" fill="none"/>
  </g>

  <!-- Text -->
  <text x="70" y="35" font-family="Lato, Arial, sans-serif" font-size="18" font-weight="700" fill="rgb(230, 240, 250)">
    FlowState<tspan fill="rgb(110, 180, 230)">Logic.ai</tspan>
  </text>
</svg>
